PathFileType	4	(X/Y/Z)	C:/Users/beibeiliu/ov580/test_trc\sequence.28_training_dense_right.trc
DataRate	CameraRate	NumFrames	NumMarkers	Units	OrigDataRate	OrigDataStartFrame	OrigNumFrames
120	120	16	19	mm	120	292	333
Frame#	Time	ThumbCMC			ThumbMCP			ThumbIP			ThumbTip			IndexMCP			IndexPIP			IndexTip			MiddleMCP			MiddlePIP			MiddleTip			RingMCP			RingPIP			RingTip			PinkyMCP			PinkyPIP			PinkyTip			BackHand1			BackHand2			BackHand3	
		X0	Y0	Z0	X1	Y1	Z1	X2	Y2	Z2	X3	Y3	Z3	X4	Y4	Z4	X5	Y5	Z5	X6	Y6	Z6	X7	Y7	Z7	X8	Y8	Z8	X9	Y9	Z9	X10	Y10	Z10	X11	Y11	Z11	X12	Y12	Z12	X13	Y13	Z13	X14	Y14	Z14	X15	Y15	Z15	X16	Y16	Z16	X17	Y17	Z17	X18	Y18	Z18	
291	2.425	173.246	48.3429	39.2268	157.8	44.6498	9.40978	162.248	40.7646	-12.0007	170.197	31.6025	-36.0465	196.229	74.705	-14.6344	188.981	62.509	-37.7966	170.277	38.7378	-31.4848	206.941	52.5453	-19.4564	186.139	31.7942	-28.7716	178.128	27.3786	1.97588	214.934	38.9268	-20.8295	196.902	23.7107	-24.964	185.947	22.168	3.22564	240.16	31.9516	0.219958	248.429	37.9628	-16.9489	260.614	43.2556	-29.0082	226.598	44.4233	32.7921	219.31	38.0499	54.3878	204.82	57.9414	48.3438	
292	2.43333	172.286	47.8003	40.4467	158.06	43.7103	12.3545	160.858	41.5072	-16.5347	168.841	33.4915	-37.4916	199.338	75.076	-12.0909	195.665	68.7294	-39.881	177.996	48.1677	-49.8786	206.325	51.6493	-22.0013	188.226	31.9906	-30.1117	182.575	26.2648	4.45502	218.912	36.9323	-19.983	194.765	21.7318	-21.9722	188.312	17.3744	0.674067	239.091	33.9057	1.47385	249.676	38.361	-17.7606	259.563	45.5424	-29.3859	229.122	45.1515	30.0128	222.867	36.0238	58.2886	204.923	59.0465	45.8589	
293	2.44167	172.329	49.3346	36.6825	164.241	41.6888	10.8417	162.726	38.9245	-12.1917	164.388	33.2184	-36.9581	202.588	74.3476	-12.3307	200.727	71.1562	-42.0239	191.305	61.0478	-59.2628	209.199	50.9988	-20.8831	185.265	29.892	-27.1777	180.412	27.0959	3.403	217.652	37.4508	-18.5219	196.42	19.6304	-21.6245	187.961	19.3406	3.46086	240.28	36.0828	-2.49057	247.895	38.8631	-17.421	257.565	43.7198	-28.4987	225.265	44.0424	32.735	222.771	36.0609	59.6344	202.198	58.9188	47.0331	
294	2.45	173.491	46.8004	37.8913	162.029	40.8118	9.14449	162.006	37.0521	-11.7323	166.233	32.0476	-37.096	205.096	73.3221	-13.2495	205.198	75.7664	-41.5511	201.315	71.5884	-61.1495	210.82	50.1019	-21.8734	189.951	27.2887	-26.6159	183.588	25.8262	4.10614	219.258	39.4996	-16.9128	197.578	19.2814	-21.7393	188.241	20.0204	3.89243	243.772	31.9932	0.494217	251.933	35.9634	-15.9682	258.573	46.3931	-28.6252	229.197	45.4739	31.7748	219.879	36.9488	59.2332	206.052	58.6388	46.7615	
295	2.45833	171.559	45.4572	39.4133	164.583	38.798	7.73862	163.111	35.9948	-15.181	166.916	30.9097	-38.3739	203.561	75.0598	-12.6181	208.245	77.5717	-39.4276	209.465	77.9464	-61.5141	209.894	52.3773	-20.6597	192.333	30.1029	-31.5905	184.059	24.6149	-0.299416	220.024	37.4828	-19.087	200.744	19.7599	-23.1745	192.296	15.3337	3.28099	244.526	34.9889	-4.03749	251.962	37.4765	-17.9158	257.981	44.5841	-28.6518	226.814	43.7997	32.1353	222.699	37.9405	55.4008	203.732	60.308	43.5	
296	2.46667	175.093	44.5096	36.561	167.743	36.1521	6.30269	163.358	34.5335	-19.9447	168.067	29.1296	-40.6598	204.109	74.7022	-12.8261	210.385	77.3214	-34.2831	214.505	80.5913	-58.9658	212.641	49.5559	-23.4256	193.383	29.1899	-31.8091	184.89	22.9625	-0.494598	219.821	36.9223	-21.1036	198.408	19.9781	-22.1064	192.413	16.9187	1.38171	245.411	35.343	-3.38671	252.829	34.463	-15.1973	265.549	43.9406	-29.7803	226.889	43.0392	32.8501	224.718	35.9641	54.8654	203.446	59.8235	44.8454	
297	2.475	174.817	43.4474	37.0438	166.135	36.1784	3.71821	163.829	31.9241	-18.5422	168.55	25.5255	-41.6792	209.745	74.1149	-15.5751	211.941	77.3346	-33.4586	219.201	83.4134	-58.8633	214.679	47.9957	-25.9186	192.065	27.3101	-32.3474	187.79	20.0745	-3.21082	223.555	35.956	-18.8389	201.643	18.8619	-24.5192	193.473	14.1877	3.03091	244.431	32.7383	-0.582138	254.556	35.0745	-15.5717	263.412	41.1484	-26.2464	229.875	42.7389	32.63	220.096	38.945	55.476	204.023	59.8395	44.3848	
298	2.48333	173.611	44.6224	35.5631	167.821	34.971	3.47064	169.044	29.2193	-19.2065	169.725	23.4103	-41.4188	211.687	71.8111	-14.5702	216.977	79.4702	-38.3814	224.022	80.7965	-56.2092	216.652	47.268	-24.0079	196.091	26.3948	-34.0401	184.712	22.8263	-4.70012	224.736	33.3668	-19.9342	207.617	16.9956	-25.8025	193.567	15.049	2.1818	249.016	29.9645	-0.685275	253.968	35.6542	-13.8544	264.594	41.4583	-25.2737	231.475	41.5225	30.3068	221.108	36.0183	58.3697	207.703	55.1316	40.9185	
299	2.49167	176.285	42.8306	34.126	167.532	34.8349	-0.943024	167.759	27.6455	-18.8555	172.509	20.0745	-43.077	212.573	70.536	-14.0072	219.826	74.8038	-34.1273	229.159	78.6552	-54.6356	218.349	44.2248	-27.0907	202.005	24.0676	-35.0495	187.403	18.9217	-7.02594	227.543	31.8919	-20.9755	207.512	15.0903	-26.1897	195.216	12.9309	-1.16688	246.222	27.6488	3.05892	257.289	34.3751	-15.0029	269.668	40.2277	-27.0876	230.305	41.0995	34.0855	224.733	34.4505	55.4503	205.821	56.3767	41.1605	
300	2.5	177.764	42.8009	34.077	166.518	33.5763	1.33467	168.031	28.8577	-24.0011	172.242	21.1199	-40.0988	216.241	70.2076	-15.5893	222.7	73.6476	-34.9186	232.102	79.1322	-56.0354	219.781	44.921	-25.7107	201.547	26.9766	-37.6866	189.842	17.8358	-6.31604	230.366	30.6912	-18.5209	210.078	14.5796	-28.3642	194.874	13.4183	-5.9074	250.537	27.9378	1.2414	261.206	31.6266	-13.9012	268.809	38.0734	-23.0828	230.537	41.7791	30.6134	222.663	35.9789	55.2566	206.537	56.6622	40.6138	
301	2.50833	173.189	44.4472	33.3244	169.724	33.1256	0.972978	166.963	28.2718	-22.2929	175.451	20.8228	-43.3404	216.56	70.0785	-15.1363	224.006	73.1643	-35.8509	235.163	76.5878	-55.79	222.02	41.8178	-27.2012	201.532	23.6578	-36.4284	189.161	18.9423	-5.42786	228.649	29.2934	-20.5899	210.117	15.6277	-28.6699	193.902	15.0236	-3.31685	247.883	29.5055	1.02245	257.509	29.6737	-10.6051	273.821	37.6035	-25.4173	230.186	37.8302	32.8349	222.524	33.6301	58.9664	210.819	53.9239	37.966	
302	2.51667	177.573	42.3495	32.3999	171.108	32.5344	2.06562	169.91	28.1338	-21.7659	175.117	20.2231	-39.2782	214.885	69.4097	-14.0078	226.497	70.5901	-36.3327	235.639	75.7273	-57.3041	220.859	43.452	-23.3151	202.909	21.8709	-35.309	188.575	18.1414	-6.04412	231.513	27.2974	-20.9906	210.469	11.7037	-26.6479	196.472	10.9491	-2.13963	248.883	28.1201	2.33319	260.371	29.0963	-11.6916	271.831	34.8133	-24.7065	229.715	40.959	30.8513	220.551	33.8841	58.9592	209.866	54.9684	38.4609	
303	2.525	174.966	43.2038	32.5947	170.783	32.9625	0.0331449	168.9	27.7611	-24.0901	172.158	19.5647	-41.4011	216.559	66.7983	-13.3021	224.357	72.5029	-36.2527	233.123	74.6082	-53.1603	222.089	40.3219	-26.5243	198.629	22.7132	-35.7871	187.667	18.7736	-7.9121	230.836	28.8074	-16.4973	210.395	9.7948	-26.5132	195.32	11.7041	-1.16233	252.31	25.9013	2.12202	258.678	27.7429	-10.3914	271.067	38.3965	-25.3666	229.201	40.3599	28.9495	221.008	34.3155	55.8563	206.437	55.38	39.1365	
304	2.53333	176.37	41.1515	32.5081	170.773	31.7442	1.42322	172.652	26.3173	-21.0582	175.846	17.9559	-39.413	215.992	68.793	-17.2953	223.641	70.0675	-33.9731	236.076	70.8014	-55.898	219.968	41.7585	-26.3175	202.107	20.6964	-35.3794	185.982	20.2737	-4.40229	228.211	27.6936	-20.4155	206.904	10.0028	-25.4391	195.846	10.1408	-2.66727	251.537	24.4061	2.90652	257.054	26.8828	-9.42794	270.595	30.8461	-22.1997	229.838	39.1275	30.1715	222.467	34.4234	55.0807	205.939	56.5221	40.9998	
305	2.54167	175.299	40.3844	33.0605	168.624	29.4639	4.41482	173.701	24.9682	-22.1467	179.228	16.2542	-41.3089	214.821	66.2847	-14.637	222.795	70.0914	-34.3446	233.928	72.3023	-54.3026	220.686	42.332	-23.247	200.526	20.9242	-34.6115	187.538	18.5305	-7.37193	229.392	26.5359	-20.5138	211.156	12.2345	-27.5596	195.39	10.8193	-3.00622	249.409	22.3219	5.35729	261.31	27.458	-12.3873	267.313	35.1448	-23.5775	229.257	37.5183	33.6146	224.43	32.8607	56.2414	204.496	54.5147	40.3598	
306	2.55	173.644	40.3472	31.2921	167.496	27.8247	1.57276	169.354	22.6584	-23.2979	176.316	13.8418	-39.4722	213.585	69.2734	-18.3251	223.578	68.1408	-35.1765	234.422	70.7864	-54.2304	221.435	41.1089	-24.7691	200.794	19.9852	-35.1102	189.695	15.7507	-7.40621	230.581	28.1741	-17.4056	212.084	11.8083	-26.3348	198.024	7.42552	-0.849602	248.886	28.3178	3.35392	257.802	28.688	-8.52027	272.778	38.216	-23.566	227.118	39.4607	34.2693	221.722	31.3883	58.5835	207.447	52.623	38.156	
